<mxfile host="app.diagrams.net" modified="2024-01-18T13:51:33.742Z" agent="Mozilla/5.0 (Macintosh; Intel Mac OS X 10_15_7) AppleWebKit/537.36 (KHTML, like Gecko) Chrome/116.0.0.0 Safari/537.36" etag="WRcSJkc0KpC4cNUoC4EF" version="22.1.21" type="github">
  <diagram name="Page-1" id="u5tjHKxdis_QjA08RVa4">
    <mxGraphModel dx="1592" dy="931" grid="1" gridSize="10" guides="1" tooltips="1" connect="1" arrows="1" fold="1" page="1" pageScale="1" pageWidth="827" pageHeight="1169" math="0" shadow="0">
      <root>
        <mxCell id="0" />
        <mxCell id="1" parent="0" />
        <mxCell id="-XuqWf5weNuhvgYLwc35-1" value="Secret" style="rounded=1;whiteSpace=wrap;html=1;fillColor=#E6E6E6;" parent="1" vertex="1">
          <mxGeometry x="120" y="560" width="120" height="60" as="geometry" />
        </mxCell>
        <mxCell id="-XuqWf5weNuhvgYLwc35-2" value="" style="shape=flexArrow;endArrow=classic;html=1;rounded=0;" parent="1" edge="1">
          <mxGeometry width="50" height="50" relative="1" as="geometry">
            <mxPoint x="250" y="590" as="sourcePoint" />
            <mxPoint x="310" y="590" as="targetPoint" />
          </mxGeometry>
        </mxCell>
        <mxCell id="-XuqWf5weNuhvgYLwc35-3" value="PrivateKey" style="rounded=1;whiteSpace=wrap;html=1;fillColor=#E6E6E6;" parent="1" vertex="1">
          <mxGeometry x="320" y="560" width="120" height="60" as="geometry" />
        </mxCell>
        <mxCell id="-XuqWf5weNuhvgYLwc35-4" value="PublicKey" style="rounded=1;whiteSpace=wrap;html=1;fillColor=#E6E6E6;" parent="1" vertex="1">
          <mxGeometry x="520" y="560" width="120" height="60" as="geometry" />
        </mxCell>
        <mxCell id="-XuqWf5weNuhvgYLwc35-5" value="" style="shape=flexArrow;endArrow=classic;html=1;rounded=0;" parent="1" edge="1">
          <mxGeometry width="50" height="50" relative="1" as="geometry">
            <mxPoint x="450" y="589.5" as="sourcePoint" />
            <mxPoint x="510" y="589.5" as="targetPoint" />
          </mxGeometry>
        </mxCell>
        <mxCell id="-XuqWf5weNuhvgYLwc35-6" value="&lt;div style=&quot;line-height: 120%;&quot;&gt;&lt;div style=&quot;line-height: 120%;&quot;&gt;&lt;font face=&quot;Helvetica&quot; style=&quot;font-size: 10px;&quot;&gt;AUTH_CLAIM_SCHEMA&lt;/font&gt;&lt;/div&gt;&lt;/div&gt;" style="rounded=1;whiteSpace=wrap;html=1;fillColor=#E6E6E6;" parent="1" vertex="1">
          <mxGeometry x="520" y="680" width="120" height="60" as="geometry" />
        </mxCell>
        <mxCell id="-XuqWf5weNuhvgYLwc35-7" value="&lt;div style=&quot;line-height: 120%;&quot;&gt;&lt;div style=&quot;line-height: 120%;&quot;&gt;&lt;div style=&quot;line-height: 120%;&quot;&gt;AuthClaimNonce&lt;/div&gt;&lt;/div&gt;&lt;/div&gt;" style="rounded=1;whiteSpace=wrap;html=1;fillColor=#E6E6E6;" parent="1" vertex="1">
          <mxGeometry x="520" y="790" width="120" height="60" as="geometry" />
        </mxCell>
        <mxCell id="z-BidtrLq9hMAoqPqyxK-1" value="" style="shape=flexArrow;endArrow=classic;html=1;rounded=0;" edge="1" parent="1">
          <mxGeometry width="50" height="50" relative="1" as="geometry">
            <mxPoint x="700" y="620" as="sourcePoint" />
            <mxPoint x="750" y="670.5" as="targetPoint" />
          </mxGeometry>
        </mxCell>
        <mxCell id="z-BidtrLq9hMAoqPqyxK-2" value="" style="shape=flexArrow;endArrow=classic;html=1;rounded=0;" edge="1" parent="1">
          <mxGeometry width="50" height="50" relative="1" as="geometry">
            <mxPoint x="700" y="799.5" as="sourcePoint" />
            <mxPoint x="750" y="760" as="targetPoint" />
          </mxGeometry>
        </mxCell>
        <mxCell id="z-BidtrLq9hMAoqPqyxK-3" value="GenesisDID" style="rounded=1;whiteSpace=wrap;html=1;fillColor=#808080;" vertex="1" parent="1">
          <mxGeometry x="805" y="690" width="120" height="60" as="geometry" />
        </mxCell>
        <mxCell id="z-BidtrLq9hMAoqPqyxK-4" value="&lt;font color=&quot;#4d4d4d&quot; style=&quot;font-size: 12px;&quot;&gt;cca3371a6cb1b715004407e325bd993c&lt;/font&gt;" style="text;html=1;align=center;verticalAlign=middle;resizable=0;points=[];autosize=1;strokeColor=none;fillColor=none;" vertex="1" parent="1">
          <mxGeometry x="465" y="740" width="230" height="30" as="geometry" />
        </mxCell>
        <mxCell id="z-BidtrLq9hMAoqPqyxK-6" value="&lt;font color=&quot;#4d4d4d&quot;&gt;15930428023331155902&lt;/font&gt;" style="text;html=1;align=center;verticalAlign=middle;resizable=0;points=[];autosize=1;strokeColor=none;fillColor=none;" vertex="1" parent="1">
          <mxGeometry x="500" y="850" width="160" height="30" as="geometry" />
        </mxCell>
        <mxCell id="z-BidtrLq9hMAoqPqyxK-8" value="&lt;font color=&quot;#4d4d4d&quot; style=&quot;font-size: 10px;&quot;&gt;did:polygonid:polygon:mumbai:2qK726&lt;span style=&quot;box-sizing: border-box; caret-color: rgb(16, 24, 40); text-align: right;&quot; aria-hidden=&quot;true&quot;&gt;...&lt;/span&gt;&lt;span style=&quot;caret-color: rgb(16, 24, 40); text-align: right; background-color: rgb(242, 244, 247);&quot;&gt;fkmzU&lt;/span&gt;&lt;/font&gt;" style="text;html=1;align=center;verticalAlign=middle;resizable=0;points=[];autosize=1;strokeColor=none;fillColor=none;" vertex="1" parent="1">
          <mxGeometry x="750" y="750" width="230" height="30" as="geometry" />
        </mxCell>
        <mxCell id="z-BidtrLq9hMAoqPqyxK-9" value="" style="shape=flexArrow;endArrow=classic;html=1;rounded=0;" edge="1" parent="1">
          <mxGeometry width="50" height="50" relative="1" as="geometry">
            <mxPoint x="970" y="650" as="sourcePoint" />
            <mxPoint x="1030" y="600" as="targetPoint" />
          </mxGeometry>
        </mxCell>
        <mxCell id="z-BidtrLq9hMAoqPqyxK-10" value="" style="shape=flexArrow;endArrow=classic;html=1;rounded=0;" edge="1" parent="1">
          <mxGeometry width="50" height="50" relative="1" as="geometry">
            <mxPoint x="980" y="780" as="sourcePoint" />
            <mxPoint x="1030" y="830" as="targetPoint" />
          </mxGeometry>
        </mxCell>
        <mxCell id="z-BidtrLq9hMAoqPqyxK-11" value="&lt;p style=&quot;line-height: 90%;&quot;&gt;Nonce &lt;br&gt;&lt;br&gt;For Schema A&lt;/p&gt;" style="rounded=1;whiteSpace=wrap;html=1;fillColor=#E6E6E6;" vertex="1" parent="1">
          <mxGeometry x="1080" y="530" width="120" height="60" as="geometry" />
        </mxCell>
        <mxCell id="z-BidtrLq9hMAoqPqyxK-12" value="&lt;font color=&quot;#4d4d4d&quot;&gt;15255558299082773463&lt;/font&gt;" style="text;html=1;align=center;verticalAlign=middle;resizable=0;points=[];autosize=1;strokeColor=none;fillColor=none;" vertex="1" parent="1">
          <mxGeometry x="1070" y="590" width="160" height="30" as="geometry" />
        </mxCell>
        <mxCell id="z-BidtrLq9hMAoqPqyxK-13" value="" style="shape=flexArrow;endArrow=classic;html=1;rounded=0;" edge="1" parent="1">
          <mxGeometry width="50" height="50" relative="1" as="geometry">
            <mxPoint x="1238.5" y="560" as="sourcePoint" />
            <mxPoint x="1337.5" y="560" as="targetPoint" />
          </mxGeometry>
        </mxCell>
        <mxCell id="z-BidtrLq9hMAoqPqyxK-14" value="&amp;nbsp;Hash(GenesisDID, nonce)" style="text;html=1;align=center;verticalAlign=middle;resizable=0;points=[];autosize=1;strokeColor=none;fillColor=none;fontSize=14;" vertex="1" parent="1">
          <mxGeometry x="1200" y="925" width="190" height="30" as="geometry" />
        </mxCell>
        <mxCell id="z-BidtrLq9hMAoqPqyxK-15" value="&lt;p style=&quot;line-height: 90%;&quot;&gt;ProfileDID&lt;br&gt;&lt;br&gt;For Schema A&lt;/p&gt;" style="rounded=1;whiteSpace=wrap;html=1;fillColor=#E6FFCC;" vertex="1" parent="1">
          <mxGeometry x="1380" y="530" width="120" height="60" as="geometry" />
        </mxCell>
        <mxCell id="z-BidtrLq9hMAoqPqyxK-16" value="AddProfile()" style="text;html=1;align=center;verticalAlign=middle;resizable=0;points=[];autosize=1;strokeColor=none;fillColor=none;fontSize=14;" vertex="1" parent="1">
          <mxGeometry x="955" y="925" width="100" height="30" as="geometry" />
        </mxCell>
        <mxCell id="z-BidtrLq9hMAoqPqyxK-17" value="0 &amp;lt; Nonce &amp;lt; 2^248" style="text;html=1;align=center;verticalAlign=middle;resizable=0;points=[];autosize=1;strokeColor=none;fillColor=none;fontSize=14;" vertex="1" parent="1">
          <mxGeometry x="1070" y="925" width="140" height="30" as="geometry" />
        </mxCell>
        <mxCell id="z-BidtrLq9hMAoqPqyxK-20" value="&lt;font color=&quot;#4d4d4d&quot;&gt;356460812078126123&lt;/font&gt;" style="text;html=1;align=center;verticalAlign=middle;resizable=0;points=[];autosize=1;strokeColor=none;fillColor=none;" vertex="1" parent="1">
          <mxGeometry x="1070" y="880" width="140" height="30" as="geometry" />
        </mxCell>
        <mxCell id="z-BidtrLq9hMAoqPqyxK-21" value="&lt;p style=&quot;line-height: 90%;&quot;&gt;Nonce &lt;br&gt;&lt;br&gt;For Schema B&lt;/p&gt;" style="rounded=1;whiteSpace=wrap;html=1;fillColor=#E6E6E6;" vertex="1" parent="1">
          <mxGeometry x="1080" y="820" width="120" height="60" as="geometry" />
        </mxCell>
        <mxCell id="z-BidtrLq9hMAoqPqyxK-22" value="&lt;p style=&quot;line-height: 90%;&quot;&gt;ProfileDID&lt;br&gt;&lt;br&gt;For Schema B&lt;/p&gt;" style="rounded=1;whiteSpace=wrap;html=1;fillColor=#E6FFCC;" vertex="1" parent="1">
          <mxGeometry x="1380" y="820" width="120" height="60" as="geometry" />
        </mxCell>
        <mxCell id="z-BidtrLq9hMAoqPqyxK-23" value="" style="shape=flexArrow;endArrow=classic;html=1;rounded=0;" edge="1" parent="1">
          <mxGeometry width="50" height="50" relative="1" as="geometry">
            <mxPoint x="1239.5" y="849.5" as="sourcePoint" />
            <mxPoint x="1338.5" y="849.5" as="targetPoint" />
          </mxGeometry>
        </mxCell>
        <mxCell id="z-BidtrLq9hMAoqPqyxK-24" value="&lt;p style=&quot;line-height: 90%;&quot;&gt;Nonce 0&lt;br&gt;&lt;/p&gt;" style="rounded=1;whiteSpace=wrap;html=1;fillColor=#E6E6E6;" vertex="1" parent="1">
          <mxGeometry x="1080" y="680" width="120" height="60" as="geometry" />
        </mxCell>
        <mxCell id="z-BidtrLq9hMAoqPqyxK-25" value="" style="shape=flexArrow;endArrow=classic;html=1;rounded=0;" edge="1" parent="1">
          <mxGeometry width="50" height="50" relative="1" as="geometry">
            <mxPoint x="1241" y="709.5" as="sourcePoint" />
            <mxPoint x="1340" y="709.5" as="targetPoint" />
          </mxGeometry>
        </mxCell>
        <mxCell id="z-BidtrLq9hMAoqPqyxK-26" value="&lt;p style=&quot;line-height: 80%;&quot;&gt;ProfileDID&lt;/p&gt;&lt;p style=&quot;line-height: 80%;&quot;&gt;（GenesisDID）&lt;/p&gt;" style="rounded=1;whiteSpace=wrap;html=1;opacity=90;fillColor=#E6E6E6;" vertex="1" parent="1">
          <mxGeometry x="1380" y="680" width="120" height="60" as="geometry" />
        </mxCell>
        <mxCell id="z-BidtrLq9hMAoqPqyxK-27" value="" style="shape=flexArrow;endArrow=classic;html=1;rounded=0;" edge="1" parent="1">
          <mxGeometry width="50" height="50" relative="1" as="geometry">
            <mxPoint x="980" y="709.5" as="sourcePoint" />
            <mxPoint x="1040" y="709.5" as="targetPoint" />
          </mxGeometry>
        </mxCell>
        <mxCell id="z-BidtrLq9hMAoqPqyxK-28" value="&lt;p style=&quot;line-height: 90%;&quot;&gt;Issuer&amp;nbsp;&lt;/p&gt;&lt;p style=&quot;line-height: 90%;&quot;&gt;For Schema A&lt;/p&gt;" style="rounded=1;whiteSpace=wrap;html=1;" vertex="1" parent="1">
          <mxGeometry x="1580" y="445" width="120" height="60" as="geometry" />
        </mxCell>
        <mxCell id="z-BidtrLq9hMAoqPqyxK-29" value="&lt;p style=&quot;line-height: 90%;&quot;&gt;Verifier&amp;nbsp;&lt;/p&gt;&lt;p style=&quot;line-height: 90%;&quot;&gt;For Schema A&lt;/p&gt;" style="rounded=1;whiteSpace=wrap;html=1;" vertex="1" parent="1">
          <mxGeometry x="1580" y="590" width="120" height="60" as="geometry" />
        </mxCell>
        <mxCell id="z-BidtrLq9hMAoqPqyxK-30" value="" style="shape=flexArrow;endArrow=classic;startArrow=classic;html=1;rounded=0;" edge="1" parent="1">
          <mxGeometry width="100" height="100" relative="1" as="geometry">
            <mxPoint x="1510" y="535" as="sourcePoint" />
            <mxPoint x="1570" y="475" as="targetPoint" />
          </mxGeometry>
        </mxCell>
        <mxCell id="z-BidtrLq9hMAoqPqyxK-32" value="" style="shape=flexArrow;endArrow=classic;startArrow=classic;html=1;rounded=0;" edge="1" parent="1">
          <mxGeometry width="100" height="100" relative="1" as="geometry">
            <mxPoint x="1510" y="555" as="sourcePoint" />
            <mxPoint x="1570" y="615" as="targetPoint" />
          </mxGeometry>
        </mxCell>
        <mxCell id="z-BidtrLq9hMAoqPqyxK-33" value="&lt;p style=&quot;line-height: 90%;&quot;&gt;Issuer&amp;nbsp;&lt;/p&gt;&lt;p style=&quot;line-height: 90%;&quot;&gt;For Schema B&lt;/p&gt;" style="rounded=1;whiteSpace=wrap;html=1;" vertex="1" parent="1">
          <mxGeometry x="1590" y="747.5" width="120" height="60" as="geometry" />
        </mxCell>
        <mxCell id="z-BidtrLq9hMAoqPqyxK-34" value="&lt;p style=&quot;line-height: 90%;&quot;&gt;Verifier&amp;nbsp;&lt;/p&gt;&lt;p style=&quot;line-height: 90%;&quot;&gt;For Schema B&lt;/p&gt;" style="rounded=1;whiteSpace=wrap;html=1;" vertex="1" parent="1">
          <mxGeometry x="1590" y="892.5" width="120" height="60" as="geometry" />
        </mxCell>
        <mxCell id="z-BidtrLq9hMAoqPqyxK-35" value="" style="shape=flexArrow;endArrow=classic;startArrow=classic;html=1;rounded=0;" edge="1" parent="1">
          <mxGeometry width="100" height="100" relative="1" as="geometry">
            <mxPoint x="1520" y="837.5" as="sourcePoint" />
            <mxPoint x="1580" y="777.5" as="targetPoint" />
          </mxGeometry>
        </mxCell>
        <mxCell id="z-BidtrLq9hMAoqPqyxK-36" value="" style="shape=flexArrow;endArrow=classic;startArrow=classic;html=1;rounded=0;" edge="1" parent="1">
          <mxGeometry width="100" height="100" relative="1" as="geometry">
            <mxPoint x="1520" y="857.5" as="sourcePoint" />
            <mxPoint x="1580" y="917.5" as="targetPoint" />
          </mxGeometry>
        </mxCell>
      </root>
    </mxGraphModel>
  </diagram>
</mxfile>
